Coordinates
version=1
nRows=5
nColumns=40
inDegrees=yes

Units are S.I. units (second, meters, Newtons, ...)
Angles are in degrees.

endheader
time	pelvis_tilt	pelvis_list	pelvis_rotation	pelvis_tx	pelvis_ty	pelvis_tz	hip_flexion_r	hip_adduction_r	hip_rotation_r	knee_angle_r	knee_angle_r_beta	ankle_angle_r	subtalar_angle_r	mtp_angle_r	hip_flexion_l	hip_adduction_l	hip_rotation_l	knee_angle_l	knee_angle_l_beta	ankle_angle_l	subtalar_angle_l	mtp_angle_l	lumbar_extension	lumbar_bending	lumbar_rotation	arm_flex_r	arm_add_r	arm_rot_r	elbow_flex_r	pro_sup_r	wrist_flex_r	wrist_dev_r	arm_flex_l	arm_add_l	arm_rot_l	elbow_flex_l	pro_sup_l	wrist_flex_l	wrist_dev_l
      0.00000000	    -16.41324488	      6.88367319	    -12.20681819	     -1.70686600	      0.89938116	      0.00046126	      7.66093750	     -4.66047485	    -10.85052199	    -27.61492066	     -0.48197129	      9.10295064	     -0.78691929	     -6.72996104	     54.84271135	      1.53068030	      6.04352232	    -74.47520295	     -1.29983750	     -1.89166139	     13.53083017	     -2.76889264	     -2.51070996	     -7.66772392	     12.82714481	     20.36055288	    -24.16667273	      7.88264215	    109.54021458	     89.95437384	      0.00000000	      0.00000000	    -31.31400512	     65.90751059	     -1.89930868	     65.90058294	     89.95437384	      0.00000000	      0.00000000
      0.01000000	    -15.60673260	      7.77022091	    -11.46201365	     -1.66681122	      0.90858516	      0.00309098	      3.60318218	     -6.51916101	    -12.39554385	    -24.92283233	     -0.43498548	      3.20656632	      0.14503768	     -5.86383048	     54.19728663	      0.40346236	      6.13536138	    -67.20319214	     -1.17291697	     -2.40268826	     13.43515886	     -2.05768557	     -2.79900433	     -9.52800368	     13.32067061	     20.40189876	    -25.02559211	      7.98558260	    112.20596828	     89.95437384	      0.00000000	      0.00000000	    -33.35426555	     67.00099154	     -1.02050073	     68.65128501	     89.95437384	      0.00000000	      0.00000000
      0.02000000	    -14.69859325	      8.39239602	    -10.67424238	     -1.62619151	      0.91789838	      0.00533602	     -0.16027849	     -8.00675303	    -14.16598777	    -22.70227199	     -0.39622939	     -3.75528065	      0.69205435	     -4.16031167	     52.66358264	     -0.72679038	      5.90934939	    -59.19741774	     -1.03318985	     -2.81959073	     12.46515082	     -1.22306176	     -3.29071482	    -10.98382056	     13.52366553	     19.95448755	    -25.76593269	      8.06994122	    114.84331789	     89.95437384	      0.00000000	      0.00000000	    -34.82833521	     67.35599608	     -0.30157403	     71.00044452	     89.95437384	      0.00000000	      0.00000000
      0.03000000	    -13.75379610	      8.70166260	    -10.06491260	     -1.58521877	      0.92706601	      0.00749741	     -3.51711510	     -9.05335047	    -15.91006213	    -20.92064613	     -0.36513416	    -10.37042744	      0.65807607	     10.33526395	     50.47329229	     -1.62516722	      5.42136028	    -50.79137751	     -0.88647677	     -1.65410586	     11.05103999	      7.30433919	     -3.85316203	    -11.97607329	     13.66275372	     18.96307104	    -26.31724851	      8.41673440	    117.26399763	     89.95437384	      0.00000000	      0.00000000	    -35.48730463	     66.98405488	     -0.14924859	     73.04657913	     89.95437384	      0.00000000	      0.00000000
      0.04000000	    -13.17253427	      8.88497949	     -9.76956246	     -1.54419565	      0.93479749	      0.00968760	     -6.06471794	     -9.86418839	    -17.18533599	    -19.24179334	     -0.33583265	    -19.69951161	     -0.30898913	     12.09902540	     48.14817521	     -2.20953324	      5.02530864	    -42.02616643	     -0.73349498	     -2.64384775	     10.13212813	      7.92155684	     -3.88256699	    -12.69125805	     14.04374263	     17.23778964	    -26.54623405	      8.49457894	    119.38092149	     89.95437384	      0.00000000	      0.00000000	    -35.59404046	     66.15934636	     -0.56783403	     74.98248551	     89.95437384	      0.00000000	      0.00000000
